<?xml version="1.0" encoding="utf-8"?>
<!-- Generator: Adobe Illustrator 21.1.0, SVG Export Plug-In . SVG Version: 6.00 Build 0)  -->
<svg version="1.1" id="圖層_1" xmlns="http://www.w3.org/2000/svg" xmlns:xlink="http://www.w3.org/1999/xlink" x="0px" y="0px"
	 viewBox="0 0 500 500" style="enable-background:new 0 0 500 500;" xml:space="preserve">
<style type="text/css">
	.st0{display:none;}
	.st1{display:inline;fill:#3CAA35;}
	.st2{display:none;fill:#FFFFFF;}
	.st3{fill:#FFFFFF;}
	.st4{display:inline;}
</style>
<g id="Layer_2" class="st0">
	<rect x="-118.9" y="-102.4" class="st1" width="786" height="697.5"/>
</g>
<g id="Layer_1">
	<path id="f_1_" class="st2" d="M288.7,500V271.9h76.6l11.5-88.9h-88v-56.7c0-25.7,7.1-43.3,44.1-43.3l47.1,0V3.5
		C371.7,2.4,343.7,0,311.2,0c-67.9,0-114.3,41.4-114.3,117.5V183h-76.8v88.9h76.8V500L288.7,500L288.7,500z"/>
	<g>
		<path class="st3" d="M0,369.2l42.2,73l0,0c8.3,16.5,25.4,27.8,45.1,27.8l0,0l0,0h280.3l-58.2-100.8H0z"/>
		<path class="st3" d="M500,369.7c0-10.1-3-19.5-8.1-27.4L327.7,56.9C319.2,40.9,302.4,30,283,30h-86.8l253.7,439.6l40-69.3
			C497.8,387,500,381.2,500,369.7z"/>
		<polygon class="st3" points="268.1,297.6 154.8,101.2 41.4,297.6 		"/>
	</g>
	<polygon id="black_1_" class="st2" points="420.4,91.6 420.4,0.9 420.4,0.9 329.7,0.9 320.6,10 277.8,91.6 264.4,100.7 
		111.5,100.7 111.5,225.3 195.5,225.3 203,234.4 111.5,409.2 111.5,500 111.5,500 202.3,500 211.3,490.9 254.2,409.3 267.6,400.2 
		420.4,400.2 420.4,275.5 336.4,275.5 329,266.4 	"/>
	<g class="st0">
		<g class="st4">
			<path class="st3" d="M249.7-0.4C111.4-0.4-0.7,111.7-0.7,250c0,106.1,66,196.7,159.2,233.2c-2.2-19.8-4.2-50.2,0.9-71.8
				c4.5-19.5,29.4-124.5,29.4-124.5s-7.5-15-7.5-37.2c0-34.8,20.2-60.8,45.3-60.8c21.4,0,31.7,16,31.7,35.3
				c0,21.5-13.7,53.6-20.7,83.4c-5.9,24.9,12.5,45.3,37.1,45.3c44.5,0,78.7-46.9,78.7-114.7c0-60-43.1-101.9-104.6-101.9
				c-71.3,0-113.1,53.4-113.1,108.7c0,21.5,8.3,44.6,18.6,57.1c2,2.5,2.3,4.7,1.7,7.2c-1.9,7.9-6.1,24.9-7,28.4
				c-1.1,4.6-3.6,5.6-8.4,3.3c-31.3-14.6-50.8-60.3-50.8-97c0-79,57.4-151.5,165.5-151.5c86.9,0,154.4,61.9,154.4,144.6
				c0,86.3-54.4,155.8-129.9,155.8c-25.4,0-49.2-13.2-57.4-28.8c0,0-12.6,47.8-15.6,59.5c-5.7,21.8-20.9,49-31.1,65.6
				c23.4,7.3,48.3,11.2,74.1,11.2c138.3,0,250.4-112.1,250.4-250.4C500.1,111.7,388-0.4,249.7-0.4z"/>
		</g>
	</g>
	<path class="st2" d="M499.8,133.6c-2.2,48.8-36.2,115.5-102,200.3c-68,88.5-125.5,132.8-172.5,132.8c-29.1,0-53.8-26.9-74-80.9
		c-13.5-49.4-26.9-98.8-40.4-148.3c-15-53.9-31-80.9-48.2-80.9c-3.7,0-16.8,7.9-39.2,23.6L0,149.9c24.7-21.7,49-43.4,73-65.2
		c32.9-28.5,57.6-43.5,74.1-45c38.9-3.7,62.9,22.9,71.9,80c9.7,61.6,16.4,99.8,20.2,114.8c11.2,51.1,23.6,76.6,37,76.6
		c10.5,0,26.2-16.6,47.1-49.7c20.9-33.1,32.2-58.3,33.7-75.6c3-28.6-8.2-42.9-33.7-42.9c-12,0-24.3,2.8-37,8.2
		c24.6-80.6,71.5-119.8,140.8-117.6C478.5,34.9,502.7,68.3,499.8,133.6z"/>
</g>
</svg>
