<svg xmlns="http://www.w3.org/2000/svg" width="256px" height="256px" viewBox="0 0 256 256">
<path class="st0" d="M233.1,228.6c5.8,0,10.7-1.9,15-5.7l-72.5-72.5c-1.7,1.2-3.4,2.5-5,3.6c-5.4,4-9.8,7.1-13.2,9.4
	c-3.4,2.2-7.9,4.5-13.5,6.9c-5.6,2.3-10.9,3.5-15.7,3.5H128h-0.1c-4.9,0-10.1-1.2-15.7-3.5c-5.6-2.3-10.1-4.6-13.5-6.9
	c-3.4-2.2-7.8-5.4-13.2-9.4c-1.5-1.1-3.2-2.3-5-3.6L7.9,222.9c4.2,3.8,9.2,5.7,15,5.7H233.1z"/>
<path class="st0" d="M14.4,104.7C9,101.1,4.2,97,0,92.3v110.4l63.9-63.9C51.1,129.8,34.7,118.5,14.4,104.7z"/>
<path class="st0" d="M241.7,104.7c-19.5,13.2-36,24.5-49.6,34l63.9,63.9V92.3C251.9,96.9,247.1,101,241.7,104.7z"/>
<path class="st0" d="M233.1,27.4H22.9c-7.3,0-13,2.5-16.9,7.4C2,39.8,0,46,0,53.4c0,6,2.6,12.5,7.9,19.5c5.2,7,10.8,12.5,16.7,16.5
	c3.2,2.3,13,9.1,29.3,20.4c8.8,6.1,16.4,11.4,23,16c5.6,3.9,10.4,7.3,14.4,10.1c0.5,0.3,1.2,0.8,2.1,1.5c1,0.7,2.3,1.7,3.9,2.8
	c3.1,2.2,5.7,4,7.7,5.4c2,1.4,4.5,2.9,7.4,4.6c2.9,1.7,5.6,3,8.2,3.9c2.6,0.9,5,1.3,7.1,1.3h0.1h0.1c2.2,0,4.6-0.4,7.1-1.3
	c2.6-0.9,5.3-2.1,8.2-3.9c2.9-1.7,5.4-3.3,7.4-4.6c2-1.4,4.6-3.2,7.7-5.4c1.6-1.2,2.9-2.1,3.9-2.8c1-0.7,1.7-1.2,2.1-1.5
	c3.1-2.2,7.9-5.5,14.5-10c11.8-8.2,29.3-20.3,52.4-36.4c7-4.9,12.8-10.7,17.4-17.6c4.7-6.9,7-14,7-21.6c0-6.3-2.3-11.7-6.8-16.1
	C244.7,29.7,239.3,27.4,233.1,27.4z"/>
</svg>
