<?xml version="1.0" encoding="utf-8"?>
<!-- Generator: Adobe Illustrator 21.1.0, SVG Export Plug-In . SVG Version: 6.00 Build 0)  -->
<svg version="1.1" id="Capa_1" xmlns="http://www.w3.org/2000/svg" xmlns:xlink="http://www.w3.org/1999/xlink" x="0px" y="0px"
	 viewBox="0 0 512 512" style="enable-background:new 0 0 512 512;" xml:space="preserve">
<style type="text/css">
	.st0{fill:#FFFFFF;}
</style>
<g>
	<path class="st0" d="M432.9,151.6c0-14.5-11.8-26.3-26.3-26.3H107.4c-14.5,0-26.3,11.8-26.3,26.3v204.4c0,14.5,11.8,26.3,26.3,26.3
		h299.2c14.5,0,26.3-11.8,26.3-26.3h-0.1V151.6z M406.4,359.3c-2.2,2.3-5.1,3.4-8,3.4c-2.7,0-5.5-1-7.6-3l-98.5-93.6l-27.6,24.7
		c-2,1.9-4.8,2.9-7.4,2.9c-2.6,0-5.2-0.9-7.4-2.8l-26.9-24L124,359.6c-2.1,2-4.8,2.9-7.5,2.9c-2.9,0-5.9-1.2-8.1-3.5
		c-4.2-4.5-3.9-11.5,0.5-15.6l97.6-91.4l-98-87.6c-4.6-4.1-5-11.1-0.9-15.6c4.1-4.6,11.1-5,15.6-0.9l106,94.9c0.7,0.5,1.2,1,1.8,1.6
		c0,0.1,0.1,0.2,0.2,0.2l26.1,23.3L390.8,148c4.6-4.1,11.6-3.7,15.6,0.8c4.1,4.6,3.7,11.6-0.8,15.6l-96.8,86.9l97.3,92.3
		C410.4,347.8,410.6,354.8,406.4,359.3z"/>
	<path class="st0" d="M483.8,28.2C465.1,9.4,442.4,0,416,0H96C69.6,0,46.9,9.4,28.2,28.2C9.4,46.9,0,69.6,0,96v320
		c0,26.4,9.4,49.1,28.2,67.8C46.9,502.6,69.6,512,96,512h320c26.4,0,49.1-9.4,67.8-28.2C502.6,465,512,442.4,512,416V96
		C512,69.6,502.6,46.9,483.8,28.2z M455,356.1c0,26.7-21.7,48.4-48.4,48.4H107.4c-26.7,0-48.4-21.7-48.4-48.4V151.6
		c0-26.7,21.7-48.4,48.4-48.4h299.2c26.7,0,48.4,21.8,48.3,48.5V356.1z"/>
</g>
</svg>
