<svg xmlns="http://www.w3.org/2000/svg" width="256px" height="256px" viewBox="0 0 256 256">
<path d="M64,227.6v14.2H49.8v-14.2H64z M64,256h14.2v-14.2H64V256z M248.9,14.2v14.2h-14.2v14.2h-14.2v14.2h-14.2v14.2
	h14.2v14.2h14.2v14.2h-14.2v14.2h-14.2V128H192v14.2h-14.2v14.2h-14.2v14.2h-14.2v14.2h-14.2v14.2h-14.2v14.2h-14.2v14.2H92.4v14.2
	H78.2v-14.2H64v-14.2v-14.2h14.2v-14.2v-14.2h14.2v-14.2H78.2H64H49.8H35.6H21.3v-14.2H7.1V128v-14.2h14.2V99.6V85.3h14.2V71.1V56.9
	h14.2V42.7V28.4H64V14.2V0h14.2h14.2h14.2h14.2h14.2h14.2h14.2h14.2H192h14.2h14.2h14.2v14.2H248.9z M163.6,99.6h-14.2v14.2h14.2
	V99.6z M177.8,28.4h-14.2h-14.2h-14.2h-14.2h-14.2H92.4H78.2v14.2v14.2H64v14.2v14.2H49.8v14.2H64v14.2h14.2V99.6h14.2v14.2h14.2
	V99.6h14.2v14.2h14.2V99.6h-14.2V85.3h14.2V71.1h14.2V56.9h14.2V42.7h14.2V28.4z"/>
</svg>
