<?xml version="1.0" encoding="utf-8"?>
<!-- Generator: Adobe Illustrator 21.1.0, SVG Export Plug-In . SVG Version: 6.00 Build 0)  -->
<svg version="1.1" id="Capa_1" xmlns="http://www.w3.org/2000/svg" xmlns:xlink="http://www.w3.org/1999/xlink" x="0px" y="0px"
	 viewBox="0 0 512 512" style="enable-background:new 0 0 512 512;" xml:space="preserve">
<style type="text/css">
	.st0{fill:#FFFFFF;}
	.st1{opacity:0.75;}
	.st2{fill:none;}
</style>
<g>
	<rect x="175.2" y="396" class="st0" width="20" height="20"/>
	<path class="st0" d="M483.8,28.2C465.1,9.4,442.4,0,416,0H96C69.6,0,46.9,9.4,28.2,28.2C9.4,46.9,0,69.6,0,96v320
		c0,26.4,9.4,49.1,28.2,67.8C46.9,502.6,69.6,512,96,512h320c26.4,0,49.1-9.4,67.8-28.2c18.8-18.8,28.2-41.4,28.2-67.8V96
		C512,69.6,502.6,46.9,483.8,28.2z M435.2,116h-20v20h-20v20h-20v20h20v20h20v20h-20v20h-20v20h-20v20h-20v20h-20v20h-20v20h-20v20
		h-20v20h-20v20h-20v20h-20v20h-20v-20h-20v-20h20v-20v-20h20v-20v-20h20v-20h-20h-20h-20h-20h-20v-20h-20v-20v-20h20v-20v-20h20
		v-20v-20h20v-20v-20h20V96V76h20h20h20h20h20h20h20h20h20h20h20h20v20h20V116z"/>
</g>
<g class="st1">
	<rect x="175.2" y="416" class="st0" width="20" height="20"/>
	<polygon class="st0" points="195.2,296 215.2,296 215.2,276 195.2,276 175.2,276 155.2,276 135.2,276 115.2,276 115.2,296 
		135.2,296 155.2,296 175.2,296 	"/>
	<polygon class="st0" points="415.2,96 395.2,96 395.2,116 375.2,116 375.2,136 355.2,136 355.2,156 335.2,156 335.2,176 355.2,176 
		375.2,176 375.2,156 395.2,156 395.2,136 415.2,136 415.2,116 435.2,116 435.2,96 	"/>
	<polygon class="st0" points="375.2,196 375.2,216 355.2,216 355.2,236 335.2,236 335.2,256 315.2,256 315.2,276 295.2,276 
		295.2,296 275.2,296 275.2,316 255.2,316 255.2,336 235.2,336 235.2,356 215.2,356 215.2,376 195.2,376 195.2,396 195.2,416 
		215.2,416 215.2,396 235.2,396 235.2,376 255.2,376 255.2,356 275.2,356 275.2,336 295.2,336 295.2,316 315.2,316 315.2,296 
		335.2,296 335.2,276 355.2,276 355.2,256 375.2,256 375.2,236 395.2,236 395.2,216 415.2,216 415.2,196 395.2,196 	"/>
</g>
<g>
	<rect x="175.2" y="196" class="st2" width="20" height="20"/>
	<rect x="215.2" y="196" class="st2" width="20" height="20"/>
	<rect x="255.2" y="216" class="st0" width="20" height="20"/>
	<rect x="295.2" y="216" class="st0" width="20" height="20"/>
	<polygon class="st0" points="315.2,116 295.2,116 275.2,116 255.2,116 235.2,116 215.2,116 195.2,116 195.2,136 195.2,156 
		175.2,156 175.2,176 175.2,196 195.2,196 195.2,216 215.2,216 215.2,196 235.2,196 235.2,216 255.2,216 255.2,196 275.2,196 
		275.2,176 295.2,176 295.2,156 315.2,156 315.2,136 335.2,136 335.2,116 	"/>
	<rect x="155.2" y="196" class="st0" width="20" height="20"/>
	<rect x="175.2" y="216" class="st0" width="20" height="20"/>
	<rect x="215.2" y="216" class="st0" width="20" height="20"/>
</g>
</svg>
