<svg xmlns="http://www.w3.org/2000/svg" width="256px" height="256px" viewBox="0 0 256 256">
<path d="M246.9,69.9c-3-7.8-7.4-14.9-12.8-21.1c1-3,2.5-8.1,2.9-14.9c0.6-8.3-0.4-19.2-5.3-31.7l-0.5-1.3l-1.4-0.4
	c0,0-15.6-5-49.2,17.5c-6.6-1.8-13.5-3.1-20.4-4.1c-7.5-1-15.1-1.5-22.7-1.6h0c-7.6,0-15.3,0.6-22.7,1.6c-6.9,0.9-13.8,2.3-20.4,4.1
	C77.6,6.8,65.5,2.5,57.6,0.9C53.5,0,50.5-0.1,48.5,0c-3,0.2-5.2,2-5.2,2l-0.1,0.2c-4.9,12.5-5.8,23.3-5.3,31.7
	c0.5,6.8,1.9,12,2.9,14.9c-5.4,6.2-9.8,13.3-12.8,21.1c-3,7.9-4.7,16.7-4.7,26.3h0c0,34.4,10.6,55.5,26.2,68.7
	c14.1,11.9,32.1,17.1,50.1,19.6c-1.4,1.8-2.7,4-3.9,6.4c-1.7,3.6-3.1,7.8-3.9,12.7c-6,2.5-16.1,5.4-26.1,2.5
	c-6.9-2-13.9-6.7-19.5-16.4l0,0c-0.5-1-10.4-18.1-29-19.4h-0.2c-0.1,0-26.6-0.3-2.8,15.9l0.4,0.2c0,0,10.3,4.8,17.8,23.8
	c0.5,1.4,11.5,34.5,58.6,26c0,6.3,0.1,11.7,0.1,16.1c0,1.3,0,2.5,0,3.6h92.3c0-1.1,0-2.1,0-3.3c0.1-9.6,0.2-24.2,0.2-38.2
	c0-7.8-1.2-14.5-3.2-19.9c-1.5-4-3.4-7.4-5.5-10.2c18-2.5,36.1-7.7,50.2-19.5c15.7-13.1,26.3-34.2,26.3-68.7
	C251.6,86.6,249.9,77.8,246.9,69.9z"/>
</svg>
