<svg xmlns="http://www.w3.org/2000/svg" width="256px" height="256px" viewBox="0 0 256 256">
<path d="M33.4,14.3C22.2,20.9,0.2,46.2,0,52.8v11c0,13.9,13,26.1,24.8,26.1c14.2,0,26-11.7,26-25.7
	c0,13.9,11.4,25.7,25.6,25.7c14.2,0,25.2-11.7,25.2-25.7c0,13.9,12.1,25.7,26.3,25.7h0.3c14.2,0,26.3-11.7,26.3-25.7
	c0,13.9,11,25.7,25.2,25.7s25.6-11.7,25.6-25.7c0,13.9,11.8,25.7,26,25.7c11.8,0,24.8-12.2,24.8-26.1v-11
	c-0.2-6.6-22.2-31.9-33.4-38.5c-34.7-1.2-58.8-1.4-94.6-1.4C92.1,12.8,43.3,13.4,33.4,14.3L33.4,14.3z M101.4,83.3
	c-1.4,2.4-3,4.5-5,6.4c-5.3,5.2-12.7,8.5-20.8,8.5c-8.1,0-15.5-3.2-20.8-8.5c-1.9-1.9-3.4-3.9-4.8-6.3v0c-1.3,2.4-3.2,4.4-5.2,6.3
	c-5.3,5.2-12.7,8.5-20.8,8.5c-1,0-2-0.3-2.8-0.5c-1.1,11.9-1.6,23.2-1.8,31.5v0c0,4.2,0,7.7-0.1,12.4c0.2,24.9-2.5,80.7,11,94.4
	c20.8,4.9,59.2,7.1,97.6,7.1h0c38.5,0,76.8-2.2,97.6-7.1c13.4-13.7,10.8-69.5,11-94.4c0-4.8,0-8.2-0.1-12.4v0
	c-0.2-8.3-0.7-19.6-1.8-31.5c-0.8,0.3-1.8,0.5-2.8,0.5c-8.1,0-15.5-3.2-20.8-8.5c-1.9-1.9-3.8-3.9-5.2-6.3l0,0
	c-1.4,2.4-2.8,4.4-4.8,6.3c-5.3,5.2-12.7,8.5-20.8,8.5c-8.1,0-15.4-3.2-20.8-8.5c-1.9-1.9-3.6-4.1-5-6.4c-1.3,2.4-3,4.5-4.9,6.4
	c-5.3,5.2-12.7,8.5-20.8,8.5c-0.3,0-0.6,0-0.8,0h0c-0.3,0-0.6,0-0.8,0c-8.1,0-15.5-3.2-20.8-8.5C104.4,87.9,102.8,85.7,101.4,83.3
	L101.4,83.3z M80,111L80,111L80,111c8.5,0,16,0,25.3,10.2c7.3-0.8,15-1.2,22.7-1.1h0c7.7,0,15.3,0.4,22.7,1.1
	C160,111,167.5,111,176,111h0v0c4,0,20,0,31.1,31.3l12,43c8.9,32-2.8,32.7-17.5,32.8c-21.7-0.8-33.7-16.5-33.7-32.3c-12,2-26,3-40,3
	h0c-14,0-28-1-40-3c0,15.7-12,31.5-33.7,32.3c-14.6,0-26.3-0.8-17.5-32.8l12-43C60.1,111,76.1,111,80,111L80,111z M128,135.6
	L128,135.6c0,0-22.8,21-26.9,28.4l14.9-0.6v13c0,0.6,6,0.4,12,0.1h0c6,0.3,12,0.5,12-0.1v-13l14.9,0.6
	C150.8,156.5,128,135.6,128,135.6L128,135.6L128,135.6L128,135.6z"/>
</svg>