<?xml version="1.0" encoding="utf-8"?>
<!-- Generator: Adobe Illustrator 21.1.0, SVG Export Plug-In . SVG Version: 6.00 Build 0)  -->
<svg version="1.1" id="Capa_1" xmlns="http://www.w3.org/2000/svg" xmlns:xlink="http://www.w3.org/1999/xlink" x="0px" y="0px"
	 viewBox="0 0 512 512" style="enable-background:new 0 0 512 512;" xml:space="preserve">
<style type="text/css">
	.st0{fill:#FFFFFF;}
</style>
<g>
	<path class="st0" d="M376.8,273.5c-1.4-5.7-3.1-11.2-6.5-16.1c-10.3-15.1-33.3-31.5-61.5-25.6c-8.8,1.8-14.7,6.5-17.4,15.2
		c-0.7,2.2-1.3,4.4-2,6.7c-1,0-1.9,0-2.8,0c-20.7,0-41.3,0-62,0.1c-2.4,0-3.6-0.8-4.7-2.9c-2.8-5.4-6-10.6-11-14.3
		c-7.6-5.8-16.5-6.6-25.5-5.3c-14.4,2-26.4,9.2-36.5,19.5c-5.1,5.3-8.9,11.3-10.8,18.5c-7,27.1-13.9,54.3-20.8,81.4
		c-1.9,7.4-4,14.6-3.4,22.4c0.9,12.2,8.4,22.2,20,25.8c12.6,3.9,24.5,1.7,35.5-5.1c12-7.3,20-18.2,26-30.7c0.9-1.8,1.9-2.2,3.6-2.2
		c39.1,0,78.2,0.1,117.4,0c2.1,0,3.1,0.7,3.9,2.5c4,8.3,9.1,15.8,15.8,22.2c11.2,10.7,24.1,17,40,14.5c11-1.7,19.2-7.3,23.4-17.8
		c3-7.5,2.9-15.3,0.9-23.1C391.4,330.6,384,302.1,376.8,273.5z M279.1,318c0,8.6,0,16.9,0,25.3c-19.1,0-28,0-47.2,0
		c0-8.6,0-17.2,0-26c-6.8,0-18.5,0-25.7,0c16.5-17.5,32.7-34.5,48.9-51.7c16.5,17.4,32.9,34.7,49.6,52.3
		C297.7,318,286,318,279.1,318z"/>
	<path class="st0" d="M483.8,28.2C465.1,9.4,442.4,0,416,0H96C69.6,0,46.9,9.4,28.2,28.2C9.4,46.9,0,69.6,0,96v320
		c0,26.4,9.4,49.1,28.2,67.8C46.9,502.6,69.6,512,96,512h320c26.4,0,49.1-9.4,67.8-28.2c18.8-18.8,28.2-41.4,28.2-67.8V96
		C512,69.6,502.6,46.9,483.8,28.2z M410.4,424.9c-103.2,0-206.4,0-309.8,0c0-69.6,0-139,0-208.6c8.5,1.3,16.8,0.6,24.9-2.1
		c8.3-2.7,15-7.6,20.3-15.2c8.8,12.9,21.1,18.6,36.1,18.6c14.8,0,27.3-5.1,36.6-17.4c9.3,12.7,22.3,17.7,37.5,17.4
		c15.1-0.2,28-5.8,37.5-18.3c8.8,12.5,21.2,17.7,35.8,17.6c14.6-0.1,27-5.2,36.1-17.4c11.3,15.1,27,18.7,44.9,17.1
		C410.4,285.8,410.4,355.3,410.4,424.9z M440.5,158.6c-0.2,0.4-0.4,0.8-0.5,1.2c-1.4,9-5.8,16.3-13.3,21.5c-8.7,6-18.5,8-28.9,6.8
		c-15.4-1.7-30.3-11.4-32.3-30.6c-1.2,9.4-4.8,17.4-12.5,23.3c-7.6,5.8-16.3,8-25.7,7.6c-8.6-0.4-16.4-3.2-23-8.9
		c-6.6-5.8-9.9-13.2-10.7-22.4c-0.2,0.8-0.3,1.1-0.3,1.4c-0.1,0.7-0.3,1.4-0.4,2c-1.5,8.5-5.6,15.4-12.6,20.4
		c-10.4,7.4-22,9.1-34.2,6.4c-10.8-2.4-19.5-8-24.3-18.3c-1.7-3.6-2.5-7.6-3.5-10.8c-1.9,19.1-17,29.1-33.2,30.1
		c-9.1,0.6-17.6-1.5-25.1-6.8c-8.3-5.9-12.4-14.2-13.5-24.1c-1.4,12.8-8,22-19.7,27.3c-11.3,5.1-23,5.1-34.5,0.5
		c-8.8-3.5-15.3-9.6-18.6-18.7c-0.9-2.6-1.5-5.3-2.2-7.9c0-7.1,0-14.1,0-21.2c0.5-0.5,1.2-0.9,1.6-1.5
		c14.3-17.8,28.5-35.6,42.8-53.5c1.1-1.3,2.1-1.8,3.8-1.8c90.9,0,181.7,0,272.6,0c1.7,0,2.8,0.5,3.8,1.9
		c14.7,18.5,29.6,37,44.4,55.5C440.5,144.8,440.5,151.7,440.5,158.6z"/>
</g>
</svg>
