<svg xmlns="http://www.w3.org/2000/svg" width="256px" height="256px" viewBox="0 0 256 256">
<path d="M241.9,14.1C232.5,4.7,221.2,0,208,0H48C34.8,0,23.5,4.7,14.1,14.1C4.7,23.5,0,34.8,0,48v160
	c0,13.2,4.7,24.5,14.1,33.9C23.5,251.3,34.8,256,48,256h160c13.2,0,24.5-4.7,33.9-14.1c9.4-9.4,14.1-20.7,14.1-33.9V48
	C256,34.8,251.3,23.5,241.9,14.1z M78,214.3H39.5V98.7H78L78,214.3L78,214.3z M74.5,77.3c-4,3.8-9.3,5.8-15.8,5.8h-0.2
	c-6.3,0-11.5-1.9-15.4-5.8c-3.9-3.8-5.9-8.6-5.9-14.2c0-5.8,2-10.6,6.1-14.3C47.3,44.9,52.6,43,59,43c6.4,0,11.6,1.9,15.5,5.7
	c3.9,3.8,5.9,8.6,6,14.3C80.5,68.7,78.5,73.4,74.5,77.3z M216.5,214.3H178v-61.8c0-17.4-6.4-26.2-19.3-26.2c-4.9,0-9,1.4-12.3,4.1
	c-3.3,2.7-5.8,6-7.5,9.9c-0.8,2-1.2,5.1-1.2,9.3v64.7H99.2c0.3-69.8,0.3-108.3,0-115.7h38.5V115c8.1-12.7,19.6-19,34.5-19
	c13.3,0,24.1,4.4,32.2,13.2c8.1,8.8,12.2,21.7,12.2,38.8L216.5,214.3L216.5,214.3L216.5,214.3z"/>
</svg>
