<svg xmlns="http://www.w3.org/2000/svg" width="256px" height="256px" viewBox="0 0 256 256">
<path d="M241.9,14.1C232.6,4.7,221.2,0,208,0H48C34.8,0,23.5,4.7,14.1,14.1C4.7,23.5,0,34.8,0,48v76l51.7,20.8
	c7.3-3.6,14.7-5.9,22-5.9c1.8,0,1.8,0.2,3.7,0.4L112,89.8c0-30.5,25.6-55,54.8-55c31.1,0,56.7,24.9,56.7,55.4
	c0,30.7-25.6,55.6-56.7,55.6l-53.1,38.8c-1.8,20.3-20.1,36.8-40.3,36.8c-20.1,0-36.6-12.8-40.3-32L0,175.9V208
	c0,13.2,4.7,24.6,14.1,33.9C23.5,251.3,34.8,256,48,256h160c13.2,0,24.6-4.7,33.9-14.1c9.4-9.4,14.1-20.7,14.1-33.9V48
	C256,34.8,251.3,23.5,241.9,14.1z"/>
<path d="M130.3,90.2c0,20.7,16.4,37.3,36.6,37.3c21.9,0,38.4-16.7,38.4-37.3c0-20.5-16.4-37.1-38.4-37.1l0,0
	C146.8,53,130.3,69.7,130.3,90.2z M197.9,89.9c0,16.4-14.6,29.8-31.1,29.8s-29.3-13.3-29.3-29.8c0-16.3,12.8-29.7,29.3-29.7
	S197.9,73.7,197.9,89.9z"/>
<path d="M60.8,201.1c-5.5-1.9-9.1-3.6-14.6-6.4c5.5,10.1,14.7,15.6,27.5,15.6c16.4,0,29.3-12.8,29.3-29.8
	c0-16.8-12.8-30.6-29.3-30.6c-1.8,0-5.5,0.4-7.3,0.8l12.8,5.1c12.8,4.9,16.4,20.5,12.8,31.8C86.4,199.3,73.6,206.6,60.8,201.1z"/>
</svg>
