<?xml version="1.0" encoding="utf-8"?>
<!-- Generator: Adobe Illustrator 21.1.0, SVG Export Plug-In . SVG Version: 6.00 Build 0)  -->
<svg version="1.1" id="Capa_1" xmlns="http://www.w3.org/2000/svg" xmlns:xlink="http://www.w3.org/1999/xlink" x="0px" y="0px"
	 viewBox="0 0 512 512" style="enable-background:new 0 0 512 512;" xml:space="preserve">
<style type="text/css">
	.st0{fill:#FFFFFF;}
</style>
<g>
	<path class="st0" d="M483.8,28.2C465.1,9.4,442.4,0,416,0H96C69.6,0,46.9,9.4,28.2,28.2C9.4,46.9,0,69.6,0,96v152l103.3,41.6
		c14.6-7.3,29.3-11.7,43.9-11.7c3.7,0,3.7,0.4,7.3,0.7l69.5-99.1c0-61.1,51.2-110.1,109.7-110.1c62.2,0,113.4,49.7,113.4,110.8
		c0,61.4-51.2,111.2-113.4,111.2L227.6,369c-3.7,40.6-40.2,73.5-80.5,73.5c-40.2,0-73.2-25.6-80.5-64L0,351.8V416
		c0,26.4,9.4,49.1,28.2,67.8C46.9,502.6,69.6,512,96,512h320c26.4,0,49.1-9.4,67.8-28.2c18.8-18.8,28.2-41.4,28.2-67.8V96
		C512,69.6,502.6,46.9,483.8,28.2z"/>
	<path class="st0" d="M260.6,180.3c0,41.3,32.9,74.6,73.2,74.6c43.9,0,76.8-33.3,76.8-74.6c0-41-32.9-74.2-76.8-74.2v0
		C293.5,106,260.6,139.3,260.6,180.3z M395.9,179.9c0,32.9-29.3,59.6-62.2,59.6s-58.5-26.7-58.5-59.6c0-32.6,25.6-59.3,58.5-59.3
		S395.9,147.4,395.9,179.9z"/>
	<path class="st0" d="M121.6,402.3c-11-3.7-18.3-7.3-29.3-12.8c11,20.1,29.3,31.1,54.9,31.1c32.9,0,58.5-25.6,58.5-59.6
		c0-33.6-25.6-61.1-58.5-61.1c-3.7,0-11,0.7-14.6,1.5l25.6,10.2c25.6,9.9,32.9,41,25.6,63.6C172.8,398.6,147.2,413.3,121.6,402.3z"
		/>
</g>
</svg>
