<svg xmlns="http://www.w3.org/2000/svg" width="256px" height="256px" viewBox="0 0 256 256">
<path d="M241.9,14.1C232.5,4.7,221.2,0,208,0H48C34.8,0,23.5,4.7,14.1,14.1C4.7,23.5,0,34.8,0,48v160
    c0,13.2,4.7,24.5,14.1,33.9C23.5,251.3,34.8,256,48,256h160c13.2,0,24.5-4.7,33.9-14.1c9.4-9.4,14.1-20.7,14.1-33.9V48
    C256,34.8,251.3,23.5,241.9,14.1z M187.2,213.5c-8.6,4-16,6.7-22.3,8.2c-6.9,1.6-14.1,2.3-21.5,2.3c-8.7,0-16.4-1.1-23.3-3.3
    c-6.8-2.2-12.6-5.4-17.3-9.5c-4.7-4-7.9-8.3-9.8-13c-1.9-4.8-2.8-11.5-2.8-20.2v-67.3H68.8V83.5c7.6-2.6,14-6.1,19.3-10.5
    c5.4-4.7,9.8-10.2,13-16.5c3.2-6.3,5.4-14.5,6.7-24.5h27.3v48.5h45.7v30.2h-45.7v49.2c0,11,0.6,18.2,1.8,21.5
    c1.1,3.1,3.3,5.6,6.5,7.5c4.1,2.6,9,3.8,14.7,3.8c9.6,0,19.2-3.1,29-9.3L187.2,213.5L187.2,213.5z"/>
</svg>
