<svg xmlns="http://www.w3.org/2000/svg" width="256px" height="256px" viewBox="0 0 256 256">
<path d="M0,208.5C24.7,224.2,51.5,232,80.5,232c18.7,0,36.2-3,52.5-8.9c16.3-5.9,30.3-13.8,42-23.7
	c11.7-9.9,21.7-21.3,30.1-34.3c8.4-12.9,14.7-26.4,18.8-40.5c4.1-14.1,6.1-28.1,6.1-42.1c0-3-0.1-5.3-0.3-6.8
	c10.5-7.5,19.3-16.6,26.3-27.3c-9.3,4.2-19.4,7-30.2,8.5c11.3-6.7,19.1-16.4,23.2-29.2c-10.8,6.3-22,10.6-33.5,12.7
	c-10.2-11-22.9-16.5-38.3-16.5c-14.5,0-26.9,5.1-37.1,15.4c-10.3,10.3-15.4,22.6-15.4,37.1c0,4.8,0.4,8.8,1.2,12
	c-21.5-1.2-41.7-6.6-60.5-16.3c-18.8-9.7-34.8-22.6-48-38.7c-4.8,8.3-7.2,17.2-7.2,26.5c0,19,7.6,33.6,22.8,43.8
	c-7.8-0.2-16.2-2.3-25-6.5v0.5c0,12.5,4.2,23.6,12.5,33.4c8.3,9.8,18.6,15.8,30.7,18.1c-4.8,1.3-9.1,2-12.7,2c-2.2,0-5.4-0.3-9.7-1
	c3.5,10.5,9.7,19.2,18.6,26c8.9,6.8,19,10.3,30.4,10.5c-19.3,15-41.1,22.5-65.3,22.5C8.2,209.3,4,209,0,208.5z"/>
</svg>
